<?xml version="1.0" standalone="no"?>
<!DOCTYPE svg PUBLIC "-//W3C//DTD SVG 20010904//EN"
 "http://www.w3.org/TR/2001/REC-SVG-20010904/DTD/svg10.dtd">
<svg version="1.0" xmlns="http://www.w3.org/2000/svg"
 width="257.000000pt" height="179.000000pt" viewBox="0 0 257.000000 179.000000"
 preserveAspectRatio="xMidYMid meet">
<metadata>
Created by potrace 1.10, written by Peter Selinger 2001-2011
</metadata>
<g transform="translate(0.000000,179.000000) scale(0.100000,-0.100000)"
fill="#000000" stroke="none">
<path d="M170 1620 c0 -19 7 -20 100 -20 l100 0 0 -275 0 -275 113 0 112 0 -3
275 -3 275 101 0 c93 0 100 1 100 20 0 20 -7 20 -310 20 -303 0 -310 0 -310
-20z m378 -277 l-3 -248 -65 0 -65 0 -3 248 -2 247 70 0 70 0 -2 -247z"/>
<path d="M1210 1623 c0 -16 10 -18 100 -15 l100 4 0 -281 c0 -261 1 -281 18
-281 16 0 17 18 15 247 -2 170 1 243 8 233 5 -8 73 -120 151 -247 l141 -233
138 0 c77 0 139 2 139 4 0 2 -28 49 -62 104 -35 55 -115 186 -178 290 l-115
191 -227 1 c-211 0 -228 -1 -228 -17z m427 -31 c11 -7 255 -398 287 -461 9
-16 12 -31 9 -35 -4 -3 -41 -6 -83 -6 -61 0 -80 4 -92 18 -8 9 -70 107 -137
217 -68 110 -134 211 -147 226 -41 43 -33 49 64 49 48 0 92 -4 99 -8z"/>
<path d="M2170 1623 c0 -16 10 -18 100 -15 l100 4 0 -281 c0 -261 1 -281 18
-281 16 0 17 19 14 280 l-3 280 86 0 c69 0 85 3 85 15 0 13 -29 15 -200 15
-184 0 -200 -1 -200 -17z"/>
<path d="M390 865 c0 -51 3 -65 15 -65 12 0 15 14 15 65 0 51 -3 65 -15 65
-12 0 -15 -14 -15 -65z"/>
<path d="M510 865 c0 -51 3 -65 15 -65 11 0 15 11 15 37 l0 38 31 -38 c45 -54
56 -49 57 29 1 57 -1 65 -16 62 -13 -3 -16 -12 -14 -43 l3 -40 -36 43 c-20 23
-41 42 -46 42 -5 0 -9 -29 -9 -65z"/>
<path d="M726 917 c-27 -20 -16 -50 22 -62 46 -13 43 -39 -4 -30 -28 5 -35 3
-32 -7 6 -17 65 -23 84 -7 25 21 16 47 -21 59 -43 14 -47 34 -5 28 17 -3 31 0
34 8 9 24 -49 32 -78 11z"/>
<path d="M880 915 c0 -8 9 -15 20 -15 17 0 20 -7 20 -50 0 -38 4 -50 15 -50
11 0 15 12 15 50 0 43 3 50 20 50 11 0 20 7 20 15 0 12 -13 15 -55 15 -42 0
-55 -3 -55 -15z"/>
<path d="M1079 873 c-13 -32 -25 -61 -27 -65 -2 -4 3 -8 11 -8 8 0 17 7 21 15
3 9 18 15 35 15 16 0 31 -6 35 -15 3 -8 12 -15 20 -15 12 0 9 13 -13 63 -15
34 -34 63 -42 65 -10 2 -24 -18 -40 -55z m54 -3 c4 -15 0 -20 -14 -20 -21 0
-22 1 -13 24 8 22 21 20 27 -4z"/>
<path d="M1380 865 c0 -53 3 -65 16 -65 13 0 15 7 11 35 -7 44 1 44 33 0 38
-53 50 -45 50 30 0 53 -3 65 -16 65 -14 0 -15 -7 -10 -42 l6 -43 -37 43 c-21
23 -41 42 -45 42 -5 0 -8 -29 -8 -65z"/>
<path d="M1580 865 l0 -65 50 0 c34 0 50 4 50 13 0 9 -11 12 -35 9 -27 -3 -35
-1 -35 12 0 11 9 16 30 16 21 0 30 5 30 16 0 12 -7 14 -30 9 -23 -5 -30 -3
-30 9 0 12 10 16 35 16 24 0 35 5 35 15 0 11 -12 15 -50 15 l-50 0 0 -65z"/>
<path d="M1776 917 c-27 -20 -16 -50 22 -62 46 -13 43 -39 -4 -30 -28 5 -35 3
-32 -7 6 -17 65 -23 84 -7 25 21 16 47 -21 59 -43 14 -47 34 -5 28 17 -3 31 0
34 8 9 24 -49 32 -78 11z"/>
<path d="M1930 915 c0 -8 9 -15 20 -15 17 0 20 -7 20 -50 0 -38 4 -50 15 -50
11 0 15 12 15 50 0 43 3 50 20 50 11 0 20 7 20 15 0 12 -13 15 -55 15 -42 0
-55 -3 -55 -15z"/>
<path d="M370 388 l0 -268 -100 0 c-93 0 -100 -1 -100 -20 0 -20 7 -20 310
-20 303 0 310 0 310 20 0 19 -7 20 -100 20 l-100 0 0 268 0 267 -110 0 -110 0
0 -267z m175 -23 l0 -240 -65 0 -65 0 -3 230 c-1 126 0 236 3 243 3 9 23 12
67 10 l63 -3 0 -240z"/>
<path d="M1410 406 l0 -256 -100 0 c-93 0 -100 -1 -100 -20 0 -19 7 -20 215
-20 208 0 215 1 215 20 0 19 -7 20 -100 20 l-101 0 2 253 c1 224 -1 252 -15
255 -14 3 -16 -23 -16 -252z"/>
<path d="M2001 625 c10 -16 88 -143 172 -282 l152 -252 40 -1 40 0 -2 282 c-2
244 -4 283 -17 286 -13 3 -16 -12 -18 -85 l-3 -87 -50 82 -50 83 -142 2 -142
2 20 -30z m272 -62 c17 -25 44 -61 60 -79 27 -32 27 -32 27 -184 0 -117 -3
-151 -12 -148 -15 5 -277 426 -278 446 0 9 24 12 85 12 l85 0 33 -47z"/>
</g>
</svg>
